<svg width="15" height="14" viewBox="0 0 15 14" fill="none" xmlns="http://www.w3.org/2000/svg">
<path d="M9.66667 2.63409L6.33333 0.163236C6.20893 0.0715973 6.06111 0.0161055 5.90652 0.00300934C5.75192 -0.0100868 5.5967 0.0197328 5.45833 0.0891101C5.3209 0.157553 5.20534 0.26227 5.12444 0.391654C5.04354 0.521037 5.00047 0.670034 5 0.822129V7.87229C4.49667 7.57286 3.9208 7.4135 3.33333 7.41106C2.67406 7.41106 2.0296 7.60428 1.48143 7.96628C0.933271 8.32828 0.506028 8.84281 0.253736 9.44479C0.00144428 10.0468 -0.0645668 10.7092 0.0640505 11.3482C0.192668 11.9873 0.510137 12.5743 0.976312 13.0351C1.44249 13.4958 2.03643 13.8096 2.68303 13.9367C3.32964 14.0638 3.99986 13.9986 4.60895 13.7492C5.21803 13.4999 5.73863 13.0776 6.1049 12.5358C6.47117 11.9941 6.66667 11.3571 6.66667 10.7055V2.46936L8.66667 3.95187C8.75421 4.01677 8.85384 4.06399 8.95985 4.09083C9.06586 4.11767 9.17618 4.12361 9.28452 4.10832C9.39285 4.09302 9.49708 4.05679 9.59124 4.00168C9.68541 3.94658 9.76767 3.87368 9.83333 3.78715C9.89899 3.70062 9.94677 3.60216 9.97393 3.49739C10.0011 3.39261 10.0071 3.28357 9.99162 3.1765C9.97615 3.06943 9.93948 2.96642 9.88373 2.87335C9.82797 2.78028 9.75421 2.69898 9.66667 2.63409Z" fill="white"/>
<g clip-path="url(#clip0_36_1161)">
<path d="M10.5 6.875V12.125" stroke="white" stroke-width="0.8" stroke-linecap="round" stroke-linejoin="round"/>
<path d="M7.875 9.5H13.125" stroke="white" stroke-width="0.8" stroke-linecap="round" stroke-linejoin="round"/>
</g>
<defs>
<clipPath id="clip0_36_1161">
<rect width="9" height="9" fill="white" transform="translate(6 5)"/>
</clipPath>
</defs>
</svg>
