<svg width="15" height="15" viewBox="0 0 15 15" fill="none" xmlns="http://www.w3.org/2000/svg">
<g clip-path="url(#clip0_36_1111)">
<path d="M7.2 0.400049C8.19375 0.400049 9.12656 0.587549 9.99844 0.962549C10.8797 1.33755 11.6461 1.85083 12.2977 2.50239C12.9492 3.15396 13.4625 3.92036 13.8375 4.80161C14.2125 5.67349 14.4 6.6063 14.4 7.60005C14.4 8.5938 14.2125 9.52661 13.8375 10.3985C13.4625 11.2797 12.9492 12.0461 12.2977 12.6977C11.6461 13.3493 10.8797 13.8625 9.99844 14.2375C9.12656 14.6125 8.19375 14.8 7.2 14.8C6.20625 14.8 5.27344 14.6125 4.40156 14.2375C3.52031 13.8625 2.75391 13.3493 2.10234 12.6977C1.45078 12.0461 0.9375 11.2797 0.5625 10.3985C0.1875 9.52661 0 8.5938 0 7.60005C0 6.6063 0.1875 5.67349 0.5625 4.80161C0.946875 3.92036 1.4625 3.1563 2.10938 2.50942C2.75625 1.86255 3.52031 1.34692 4.40156 0.962549C5.27344 0.587549 6.20625 0.400049 7.2 0.400049ZM7.2 10.4829C7.59375 10.4829 7.96875 10.4079 8.325 10.2579C8.67188 10.1079 8.97656 9.90161 9.23906 9.63911C9.50156 9.37661 9.70781 9.07192 9.85781 8.72505C10.0078 8.3688 10.0828 7.9938 10.0828 7.60005C10.0828 7.2063 10.0078 6.8313 9.85781 6.47505C9.70781 6.12817 9.50156 5.82349 9.23906 5.56099C8.97656 5.29849 8.67188 5.09224 8.325 4.94224C7.96875 4.79224 7.59375 4.71724 7.2 4.71724C6.80625 4.71724 6.43125 4.79224 6.075 4.94224C5.72813 5.09224 5.42344 5.29849 5.16094 5.56099C4.89844 5.82349 4.69219 6.12817 4.54219 6.47505C4.39219 6.8313 4.31719 7.2063 4.31719 7.60005C4.31719 8.00317 4.39219 8.37817 4.54219 8.72505C4.69219 9.07192 4.89844 9.37661 5.16094 9.63911C5.42344 9.90161 5.72813 10.1079 6.075 10.2579C6.42188 10.4079 6.79688 10.4829 7.2 10.4829ZM7.2 6.88286C7.39687 6.88286 7.56562 6.95317 7.70625 7.0938C7.84687 7.23442 7.91719 7.40317 7.91719 7.60005C7.91719 7.79692 7.84687 7.96567 7.70625 8.1063C7.56562 8.24692 7.39687 8.31724 7.2 8.31724C7.00312 8.31724 6.83437 8.24692 6.69375 8.1063C6.55312 7.96567 6.48281 7.79692 6.48281 7.60005C6.48281 7.40317 6.55312 7.23442 6.69375 7.0938C6.83437 6.95317 7.00312 6.88286 7.2 6.88286Z" fill="white"/>
</g>
<defs>
<clipPath id="clip0_36_1111">
<rect width="14.4" height="14.4" fill="white" transform="matrix(1 0 0 -1 0 14.8)"/>
</clipPath>
</defs>
</svg>
