<svg width="15" height="15" viewBox="0 0 15 15" fill="none" xmlns="http://www.w3.org/2000/svg">
<g clip-path="url(#clip0_36_1103)">
<path d="M5.45369 0.400145C5.91307 0.400145 6.33963 0.484519 6.73338 0.653269C7.13651 0.831394 7.48572 1.07046 7.78104 1.37046C8.07635 1.67046 8.30838 2.02202 8.47713 2.42514C8.64588 2.83764 8.72557 3.26889 8.71619 3.71889C8.70682 4.15952 8.61775 4.57202 8.44901 4.95639C8.27088 5.35014 8.03416 5.69233 7.73885 5.98296C7.44354 6.27358 7.09901 6.50327 6.70526 6.67202C6.31151 6.84077 5.89432 6.92514 5.45369 6.92514C5.00369 6.92514 4.58182 6.83608 4.18807 6.65796C3.78494 6.48921 3.43807 6.25483 3.14744 5.95483C2.85682 5.65483 2.62713 5.30796 2.45838 4.91421C2.28026 4.51108 2.19119 4.07983 2.19119 3.62046C2.19119 3.17983 2.28026 2.76264 2.45838 2.36889C2.62713 1.97514 2.85916 1.63296 3.15447 1.34233C3.44979 1.05171 3.79432 0.82202 4.18807 0.653269C4.59119 0.484519 5.01307 0.400145 5.45369 0.400145ZM12.2037 8.71108C12.2037 9.22671 12.2037 9.74468 12.2037 10.265C12.2037 10.7853 12.2037 11.3033 12.2037 11.8189C12.2037 12.5595 11.9951 13.1947 11.5779 13.7244C11.1607 14.2541 10.5959 14.5892 9.88338 14.7298C9.48963 14.8142 9.10994 14.8166 8.74432 14.7369C8.37869 14.6572 8.04588 14.4673 7.74588 14.1673C7.33338 13.7642 7.14119 13.258 7.16932 12.6486C7.19744 12.0392 7.43651 11.547 7.88651 11.172C8.11151 10.9939 8.35291 10.8533 8.61072 10.7501C8.86854 10.647 9.13807 10.5673 9.41932 10.5111C9.62557 10.4642 9.83182 10.4173 10.0381 10.3705C10.2443 10.3236 10.4506 10.2767 10.6568 10.2298C10.7974 10.2017 10.9029 10.1478 10.9732 10.0681C11.0435 9.98843 11.0834 9.87827 11.0928 9.73764C11.1021 9.69077 11.1092 9.64624 11.1138 9.60405C11.1185 9.56186 11.1209 9.51733 11.1209 9.47046C11.1209 8.82358 11.1209 8.17436 11.1209 7.5228C11.1209 6.87124 11.1209 6.21733 11.1209 5.56108C11.1115 5.51421 11.1092 5.46733 11.1138 5.42046C11.1185 5.37358 11.1256 5.32202 11.1349 5.26577C11.1724 5.14389 11.2451 5.0478 11.3529 4.97749C11.4607 4.90718 11.5849 4.87671 11.7256 4.88608C11.8568 4.90483 11.967 4.96108 12.056 5.05483C12.1451 5.14858 12.1943 5.26108 12.2037 5.39233C12.2037 5.48608 12.2037 5.57749 12.2037 5.66655C12.2037 5.75561 12.2037 5.84702 12.2037 5.94077V8.71108ZM5.39744 7.90952C5.83807 7.90952 6.27869 7.94936 6.71932 8.02905C7.15994 8.10874 7.59119 8.22358 8.01307 8.37358C8.07869 8.40171 8.13494 8.43452 8.18182 8.47202C8.22869 8.50952 8.24744 8.57046 8.23807 8.65483C8.23807 8.72983 8.21697 8.78843 8.17479 8.83061C8.1326 8.8728 8.07869 8.90327 8.01307 8.92202C7.71307 9.03452 7.42244 9.15874 7.14119 9.29468C6.85994 9.43061 6.59276 9.59702 6.33963 9.79389C6.00213 10.047 5.74666 10.34 5.57322 10.6728C5.39979 11.0056 5.30838 11.383 5.29901 11.8048C5.29901 11.8705 5.2826 11.9197 5.24979 11.9525C5.21697 11.9853 5.16776 12.0017 5.10213 12.0017C4.88651 12.0017 4.66619 11.9994 4.44119 11.9947C4.21619 11.99 3.99588 11.983 3.78026 11.9736C3.32088 11.9361 2.86385 11.8916 2.40916 11.84C1.95447 11.7884 1.50213 11.7111 1.05213 11.608C0.958381 11.5798 0.864631 11.5541 0.770881 11.5306C0.677131 11.5072 0.583381 11.4814 0.489631 11.4533C0.442756 11.4345 0.398224 11.4134 0.356037 11.39C0.313849 11.3666 0.274006 11.3408 0.236506 11.3126C0.114631 11.2283 0.0396307 11.1228 0.0115057 10.9962C-0.0166193 10.8697 0.00681818 10.7408 0.0818182 10.6095C0.334943 10.1783 0.639631 9.80327 0.995881 9.48452C1.35213 9.16577 1.75526 8.89389 2.20526 8.66889C2.71151 8.40639 3.23416 8.21421 3.77322 8.09233C4.31229 7.97046 4.85369 7.90952 5.39744 7.90952Z" fill="white"/>
</g>
<defs>
<clipPath id="clip0_36_1103">
<rect width="14.4" height="14.4" fill="white" transform="matrix(1 0 0 -1 0 14.8)"/>
</clipPath>
</defs>
</svg>
