<svg width="15" height="15" viewBox="0 0 15 15" fill="none" xmlns="http://www.w3.org/2000/svg">
<g clip-path="url(#clip0_36_1119)">
<path d="M14.3754 14.786H14.1926C13.6019 14.786 13.0113 14.786 12.4207 14.786C11.8207 14.7954 11.2254 14.8 10.6348 14.8C10.0441 14.8 9.44882 14.8 8.84882 14.8C8.25819 14.8 7.66757 14.7954 7.07694 14.786C6.55194 14.7766 6.05038 14.7204 5.57226 14.6172C5.09413 14.5141 4.63476 14.3618 4.19413 14.1602C3.75351 13.9586 3.33632 13.7125 2.94257 13.4219C2.54882 13.1219 2.17851 12.7797 1.83163 12.3954C1.32538 11.8422 0.922256 11.2375 0.622256 10.5813C0.322256 9.92505 0.130068 9.22192 0.0456934 8.47192C-0.0199316 7.83442 -0.0152441 7.22036 0.0597559 6.62974C0.125381 6.03911 0.263662 5.47661 0.4746 4.94224C0.685537 4.40786 0.969131 3.90161 1.32538 3.42349C1.67226 2.94536 2.08944 2.49536 2.57694 2.07349C3.13007 1.59536 3.73241 1.22271 4.38397 0.955518C5.03554 0.688331 5.72226 0.517237 6.44413 0.442237C7.34413 0.348487 8.21601 0.414112 9.05976 0.639112C9.90351 0.873487 10.6723 1.23677 11.366 1.72896C12.0598 2.22114 12.6504 2.82817 13.1379 3.55005C13.6348 4.27192 13.9863 5.07349 14.1926 5.95474C14.2582 6.19849 14.3051 6.44692 14.3332 6.70005C14.3613 6.95317 14.3754 7.2063 14.3754 7.45942C14.3754 8.05005 14.3754 8.64536 14.3754 9.24536C14.3754 9.83599 14.3754 10.429 14.3754 11.0243C14.3754 11.6196 14.3754 12.2172 14.3754 12.8172C14.3754 13.4172 14.3754 14.0125 14.3754 14.6032V14.786ZM13.1801 13.5907V13.3797C13.1801 12.8922 13.1801 12.4 13.1801 11.9032C13.1801 11.4063 13.1801 10.9094 13.1801 10.4125C13.1801 9.91567 13.1801 9.4188 13.1801 8.92192C13.1801 8.43442 13.1754 7.94224 13.166 7.44536C13.166 7.26724 13.1566 7.08911 13.1379 6.91099C13.1191 6.73286 13.0957 6.55942 13.0676 6.39067C12.8988 5.5938 12.5941 4.87192 12.1535 4.22505C11.7129 3.58755 11.1832 3.05786 10.5644 2.63599C9.94569 2.21411 9.25663 1.9188 8.49726 1.75005C7.73788 1.57192 6.95507 1.55317 6.14882 1.6938C5.46444 1.8063 4.82694 2.03599 4.23632 2.38286C3.64569 2.72036 3.12772 3.13989 2.68241 3.64146C2.2371 4.14302 1.88319 4.70786 1.62069 5.33599C1.36757 5.96411 1.22694 6.62505 1.19882 7.3188C1.17069 7.9188 1.2246 8.50005 1.36054 9.06255C1.49647 9.62505 1.72382 10.1594 2.04257 10.6657C2.32382 11.125 2.64257 11.5329 2.99882 11.8891C3.34569 12.2454 3.72772 12.5454 4.14491 12.7891C4.5621 13.0329 5.00976 13.2204 5.48788 13.3516C5.96601 13.4829 6.47694 13.5579 7.02069 13.5766C7.52694 13.5954 8.02851 13.6047 8.52538 13.6047C9.03163 13.6047 9.53788 13.6047 10.0441 13.6047C10.5504 13.6047 11.0519 13.6 11.5488 13.5907C12.0551 13.5907 12.5613 13.5907 13.0676 13.5907C13.0769 13.5907 13.091 13.5907 13.1098 13.5907C13.1285 13.5907 13.1519 13.5907 13.1801 13.5907ZM10.5223 8.7813V9.96255H4.53163V8.7813H10.5223ZM4.53163 6.72817V5.56099H8.11757V6.72817H4.53163Z" fill="white"/>
</g>
<defs>
<clipPath id="clip0_36_1119">
<rect width="14.4" height="14.4" fill="white" transform="matrix(1 0 0 -1 0 14.8)"/>
</clipPath>
</defs>
</svg>
