<svg width="21" height="22" viewBox="0 0 21 22" fill="none" xmlns="http://www.w3.org/2000/svg">
<path d="M21 11C21 13.7848 19.8938 16.4555 17.9246 18.4246C15.9555 20.3938 13.2848 21.5 10.5 21.5C7.71523 21.5 5.04451 20.3938 3.07538 18.4246C1.10625 16.4555 0 13.7848 0 11C0 8.21523 1.10625 5.54451 3.07538 3.57538C5.04451 1.60625 7.71523 0.5 10.5 0.5C13.2848 0.5 15.9555 1.60625 17.9246 3.57538C19.8938 5.54451 21 8.21523 21 11V11ZM13.125 11C13.125 10.3038 12.8484 9.63613 12.3562 9.14384C11.8639 8.65156 11.1962 8.375 10.5 8.375C9.80381 8.375 9.13613 8.65156 8.64384 9.14384C8.15156 9.63613 7.875 10.3038 7.875 11C7.875 11.6962 8.15156 12.3639 8.64384 12.8562C9.13613 13.3484 9.80381 13.625 10.5 13.625C11.1962 13.625 11.8639 13.3484 12.3562 12.8562C12.8484 12.3639 13.125 11.6962 13.125 11ZM5.25 11C5.25 9.60761 5.80312 8.27226 6.78769 7.28769C7.77226 6.30312 9.10761 5.75 10.5 5.75C10.674 5.75 10.841 5.68086 10.964 5.55779C11.0871 5.43472 11.1562 5.2678 11.1562 5.09375C11.1562 4.9197 11.0871 4.75278 10.964 4.62971C10.841 4.50664 10.674 4.4375 10.5 4.4375C8.75952 4.4375 7.09032 5.1289 5.85961 6.35961C4.6289 7.59032 3.9375 9.25952 3.9375 11C3.9375 11.174 4.00664 11.341 4.12971 11.464C4.25278 11.5871 4.4197 11.6562 4.59375 11.6562C4.7678 11.6562 4.93472 11.5871 5.05779 11.464C5.18086 11.341 5.25 11.174 5.25 11ZM17.0625 11C17.0625 10.826 16.9934 10.659 16.8703 10.536C16.7472 10.4129 16.5803 10.3438 16.4062 10.3438C16.2322 10.3438 16.0653 10.4129 15.9422 10.536C15.8191 10.659 15.75 10.826 15.75 11C15.75 12.3924 15.1969 13.7277 14.2123 14.7123C13.2277 15.6969 11.8924 16.25 10.5 16.25C10.326 16.25 10.159 16.3191 10.036 16.4422C9.91289 16.5653 9.84375 16.7322 9.84375 16.9062C9.84375 17.0803 9.91289 17.2472 10.036 17.3703C10.159 17.4934 10.326 17.5625 10.5 17.5625C12.2405 17.5625 13.9097 16.8711 15.1404 15.6404C16.3711 14.4097 17.0625 12.7405 17.0625 11Z" fill="#C7C7C7"/>
</svg>
