<svg width="15" height="15" viewBox="0 0 15 15" fill="none" xmlns="http://www.w3.org/2000/svg">
<g clip-path="url(#clip0_36_1115)">
<path d="M7.43906 13.2531C6.87656 13.2531 6.31641 13.2554 5.75859 13.2601C5.20078 13.2648 4.64531 13.2625 4.09219 13.2531C3.52031 13.2531 2.98594 13.1453 2.48906 12.9296C1.99219 12.714 1.55859 12.4187 1.18828 12.0437C0.817969 11.6687 0.525 11.2328 0.309375 10.7359C0.103125 10.2296 0 9.69526 0 9.13276C0 8.71089 0.065625 8.30308 0.196875 7.90933C0.31875 7.51558 0.494531 7.1523 0.724219 6.81948C0.953906 6.48667 1.22812 6.18901 1.54688 5.92651C1.86562 5.67339 2.22187 5.46714 2.61562 5.30776C2.6625 5.29839 2.70469 5.27495 2.74219 5.23745C2.77969 5.19995 2.80312 5.15776 2.8125 5.11089C3.00937 4.50151 3.31406 3.97183 3.72656 3.52183C4.12969 3.06245 4.59609 2.69917 5.12578 2.43198C5.65547 2.16479 6.225 2.00308 6.83437 1.94683C7.44375 1.89995 8.04844 1.97495 8.64844 2.17183C9.05156 2.30308 9.42188 2.4812 9.75937 2.7062C10.0969 2.94058 10.3992 3.20776 10.6664 3.50776C10.9336 3.80776 11.1609 4.14058 11.3484 4.5062C11.5266 4.87183 11.6578 5.26089 11.7422 5.67339C11.7609 5.75776 11.7703 5.84917 11.7703 5.94761C11.7703 6.04604 11.7937 6.12339 11.8406 6.17964C11.8875 6.23589 11.9578 6.27573 12.0516 6.29917C12.1453 6.32261 12.2297 6.35308 12.3047 6.39058C12.6703 6.55933 12.9937 6.77495 13.275 7.03745C13.5469 7.29995 13.7742 7.59526 13.957 7.92339C14.1398 8.25151 14.2641 8.60776 14.3297 8.99214C14.4047 9.37651 14.4187 9.77026 14.3719 10.1734C14.325 10.5484 14.2172 10.9046 14.0484 11.2421C13.8797 11.5796 13.6641 11.882 13.4016 12.1492C13.1391 12.4164 12.8391 12.6437 12.5016 12.8312C12.1641 13.0093 11.8078 13.1312 11.4328 13.1968C11.3109 13.2156 11.1914 13.2296 11.0742 13.239C10.957 13.2484 10.8422 13.2531 10.7297 13.2531C10.1859 13.2625 9.6375 13.2648 9.08437 13.2601C8.53125 13.2554 7.98281 13.2531 7.43906 13.2531ZM6.17344 8.12026C6.00469 8.12026 5.84297 8.12026 5.68828 8.12026C5.53359 8.12026 5.37656 8.12026 5.21719 8.12026C5.09531 8.12026 4.9875 8.1437 4.89375 8.19058C4.8 8.23745 4.725 8.31714 4.66875 8.42964C4.62187 8.53276 4.6125 8.63589 4.64062 8.73901C4.66875 8.84214 4.72969 8.94526 4.82344 9.04839C5.15156 9.37651 5.47734 9.70229 5.80078 10.0257C6.12422 10.3492 6.45 10.6703 6.77812 10.989C6.91875 11.139 7.05937 11.214 7.2 11.214C7.34062 11.214 7.48125 11.139 7.62187 10.989L9.54844 9.06245C9.56719 9.05308 9.58359 9.03901 9.59766 9.02026C9.61172 9.00151 9.62344 8.98276 9.63281 8.96401C9.70781 8.88901 9.75234 8.80464 9.76641 8.71089C9.78047 8.61714 9.76406 8.52339 9.71719 8.42964C9.68906 8.33589 9.63281 8.26089 9.54844 8.20464C9.46406 8.14839 9.37031 8.12026 9.26719 8.12026C9.12656 8.12026 8.98125 8.12026 8.83125 8.12026C8.68125 8.12026 8.53594 8.12026 8.39531 8.12026C8.36719 8.12026 8.33906 8.11792 8.31094 8.11323C8.28281 8.10855 8.25469 8.1062 8.22656 8.1062V7.92339C8.22656 7.60464 8.22656 7.29058 8.22656 6.9812C8.22656 6.67183 8.22656 6.35776 8.22656 6.03901C8.21719 5.75776 8.10938 5.5187 7.90312 5.32183C7.69687 5.12495 7.45312 5.0312 7.17188 5.04058C6.89062 5.04995 6.65391 5.15308 6.46172 5.34995C6.26953 5.54683 6.17344 5.78589 6.17344 6.06714C6.17344 6.40464 6.17344 6.74214 6.17344 7.07964C6.17344 7.41714 6.17344 7.76401 6.17344 8.12026Z" fill="white"/>
</g>
<defs>
<clipPath id="clip0_36_1115">
<rect width="14.4" height="14.4" fill="white" transform="matrix(1 0 0 -1 0 14.8)"/>
</clipPath>
</defs>
</svg>
