<!-- Generated by IcoMoon.io -->
<svg version="1.1" xmlns="http://www.w3.org/2000/svg" width="1024" height="1024" viewBox="0 0 1024 1024">
<title></title>
<g id="icomoon-ignore">
</g>
<path d="M390.131 886.71v-130.853c0-33.159 26.963-60.095 60.361-60.304h122.632c33.545 0 60.742 27.001 60.742 60.304v130.476c0 28.76 23.37 52.131 52.34 52.34h83.661c39.075 0.102 76.586-15.239 104.253-42.636 27.662-27.397 43.213-64.596 43.213-103.387v-371.7c0-31.337-13.992-61.062-38.205-81.167l-284.23-225.674c-49.683-39.473-120.641-38.198-168.856 3.034l-278.117 222.64c-25.356 19.512-40.51 49.325-41.259 81.167v371.318c0 80.859 66.021 146.404 147.463 146.404h81.755c13.947 0.102 27.358-5.329 37.255-15.085s15.465-23.031 15.464-36.878h1.528z"></path>
</svg>
