<svg width="22" height="22" viewBox="0 0 22 22" fill="none" xmlns="http://www.w3.org/2000/svg">
<g opacity="0.25">
<path d="M8.38171 19.0504V16.2391C8.3817 15.5267 8.96099 14.948 9.67852 14.9435H12.3132C13.0339 14.9435 13.6182 15.5236 13.6182 16.2391V19.0423C13.6182 19.6602 14.1203 20.1623 14.7427 20.1668H16.5401C17.3796 20.169 18.1855 19.8394 18.7799 19.2508C19.3742 18.6622 19.7083 17.863 19.7083 17.0296V9.04386C19.7083 8.3706 19.4077 7.73198 18.8875 7.30004L12.781 2.45158C11.7136 1.60353 10.1891 1.63092 9.15323 2.51676L3.17805 7.30004C2.6333 7.71925 2.30772 8.35976 2.29163 9.04386V17.0214C2.29163 18.7586 3.71006 20.1668 5.45978 20.1668H7.21623C7.51587 20.169 7.80399 20.0523 8.01664 19.8427C8.2293 19.6331 8.34889 19.3479 8.34888 19.0504H8.38171Z" fill="#EFEEE0"/>
</g>
</svg>
