<svg width="15" height="15" viewBox="0 0 15 15" fill="none" xmlns="http://www.w3.org/2000/svg">
<g clip-path="url(#clip0_36_1123)">
<path d="M7.19297 2.48109C7.36172 2.34046 7.52579 2.20452 7.68516 2.07328C7.84454 1.94203 8.00391 1.81546 8.16329 1.69359C8.62266 1.36546 9.10782 1.12171 9.61875 0.962337C10.1297 0.802963 10.6711 0.765463 11.243 0.849838C11.6461 0.896713 12.0305 1.01859 12.3961 1.21546C12.7617 1.41234 13.0852 1.66546 13.3664 1.97484C13.6852 2.32171 13.9289 2.70374 14.0977 3.12093C14.2664 3.53812 14.3648 3.98577 14.393 4.4639C14.4117 4.85765 14.3836 5.23734 14.3086 5.60296C14.2336 5.96859 14.0977 6.32015 13.9008 6.65765C13.807 6.80765 13.7086 6.95765 13.6055 7.10765C13.5023 7.25765 13.3898 7.40296 13.268 7.54359C13.0055 7.86234 12.7406 8.18109 12.4734 8.49984C12.2063 8.81859 11.9414 9.13734 11.6789 9.45609C11.3883 9.80296 11.1 10.1475 10.8141 10.4897C10.5281 10.8319 10.2398 11.1717 9.94922 11.5092C9.67735 11.8373 9.40547 12.1655 9.1336 12.4936C8.86172 12.8217 8.58516 13.1498 8.30391 13.478C8.20079 13.6092 8.09063 13.7358 7.97344 13.8576C7.85625 13.9795 7.73672 14.0967 7.61485 14.2092C7.46485 14.3311 7.31719 14.3897 7.17188 14.385C7.02657 14.3803 6.8836 14.3076 6.74297 14.167C6.61172 14.0358 6.48282 13.9022 6.35625 13.7662C6.22969 13.6303 6.10547 13.492 5.9836 13.3514C5.7586 13.0889 5.5336 12.8241 5.3086 12.5569C5.0836 12.2897 4.8586 12.0201 4.6336 11.7483C4.41797 11.4858 4.20235 11.2256 3.98672 10.9678C3.7711 10.71 3.55547 10.4498 3.33985 10.1873C3.06797 9.86859 2.7961 9.54515 2.52422 9.21702C2.25235 8.8889 1.98047 8.56546 1.7086 8.24671C1.56797 8.07796 1.42735 7.91156 1.28672 7.74749C1.1461 7.58343 1.01485 7.41234 0.892974 7.23421C0.471099 6.65296 0.194536 6.04359 0.0632861 5.40609C-0.0679639 4.76859 -0.0210889 4.09828 0.203911 3.39515C0.316411 3.04827 0.473442 2.72484 0.675005 2.42484C0.876567 2.12484 1.11797 1.85765 1.39922 1.62328C1.7836 1.30453 2.19844 1.07952 2.64375 0.948276C3.08907 0.817025 3.56485 0.779526 4.0711 0.835775C4.38985 0.8639 4.70157 0.927181 5.00625 1.02562C5.31094 1.12406 5.59922 1.25765 5.8711 1.4264C6.0961 1.56703 6.31407 1.71937 6.525 1.88343C6.73594 2.04749 6.93516 2.22328 7.12266 2.41078C7.13204 2.42015 7.14375 2.43187 7.15782 2.44593C7.17188 2.45999 7.1836 2.47171 7.19297 2.48109ZM7.19297 13.0139C7.36172 12.8076 7.52813 12.6084 7.69219 12.4162C7.85625 12.2241 8.01797 12.0342 8.17735 11.8467C8.40235 11.5748 8.62735 11.303 8.85235 11.0311C9.07735 10.7592 9.30704 10.4873 9.54141 10.2155C9.76641 9.94359 9.99141 9.6764 10.2164 9.4139C10.4414 9.1514 10.6664 8.88421 10.8914 8.61234C11.1164 8.34984 11.3414 8.08265 11.5664 7.81077C11.7914 7.5389 12.0164 7.26703 12.2414 6.99515C12.4945 6.68578 12.7102 6.35765 12.8883 6.01078C13.0664 5.6639 13.1602 5.27953 13.1695 4.85765C13.1789 4.30453 13.0758 3.80765 12.8602 3.36703C12.6445 2.9264 12.2883 2.56078 11.7914 2.27015C11.5852 2.14828 11.3648 2.0639 11.1305 2.01702C10.8961 1.97015 10.6617 1.97015 10.4273 2.01702C10.118 2.0639 9.82735 2.15999 9.55547 2.30531C9.2836 2.45062 9.0211 2.61703 8.76797 2.80453C8.51485 3.0014 8.2711 3.21234 8.03672 3.43734C7.80235 3.66234 7.58204 3.89671 7.37579 4.14046C7.31954 4.21546 7.26094 4.25296 7.2 4.25296C7.13907 4.25296 7.07579 4.21546 7.01016 4.14046C6.93516 4.05609 6.85782 3.97171 6.77813 3.88734C6.69844 3.80296 6.61641 3.7139 6.53204 3.62015C6.26016 3.32952 5.96719 3.06234 5.65313 2.81859C5.33907 2.57484 4.99454 2.36859 4.61954 2.19984C4.22579 2.03109 3.83907 1.96546 3.45938 2.00296C3.07969 2.04046 2.71172 2.1764 2.35547 2.41078C2.13047 2.56078 1.94297 2.7389 1.79297 2.94515C1.64297 3.1514 1.5211 3.38109 1.42735 3.63421C1.31485 3.93421 1.24922 4.24359 1.23047 4.56234C1.21172 4.88109 1.24454 5.19515 1.32891 5.50453C1.40391 5.76702 1.51172 6.01312 1.65235 6.24281C1.79297 6.47249 1.94297 6.69515 2.10235 6.91078C2.3836 7.25765 2.66719 7.59984 2.95313 7.93734C3.23907 8.27484 3.52735 8.61702 3.81797 8.9639C4.08985 9.28265 4.35938 9.60374 4.62657 9.92718C4.89375 10.2506 5.16329 10.5764 5.43516 10.9045C5.60391 11.1108 5.77735 11.3194 5.95547 11.5303C6.1336 11.7412 6.30704 11.9498 6.47579 12.1561L7.19297 13.0139Z" fill="white"/>
</g>
<defs>
<clipPath id="clip0_36_1123">
<rect width="14.4" height="14.4" fill="white" transform="matrix(1 0 0 -1 0 14.7998)"/>
</clipPath>
</defs>
</svg>
