<svg width="22" height="22" viewBox="0 0 22 22" fill="none" xmlns="http://www.w3.org/2000/svg">
<g opacity="0.25">
<path d="M10.535 1.83325C12.8107 1.83325 14.6666 3.65742 14.6666 5.90325V10.2941H9.07072C8.66967 10.2941 8.35257 10.6058 8.35257 10.9999C8.35257 11.3849 8.66967 11.7058 9.07072 11.7058H14.6666V16.0874C14.6666 18.3333 12.8107 20.1666 10.5163 20.1666H5.9743C3.6893 20.1666 1.83331 18.3424 1.83331 16.0966V5.91242C1.83331 3.65742 3.69862 1.83325 5.98363 1.83325H10.535ZM16.9952 7.8376C17.2702 7.55344 17.7193 7.55344 17.9943 7.82844L20.671 10.4959C20.8085 10.6334 20.8818 10.8076 20.8818 11.0001C20.8818 11.1834 20.8085 11.3668 20.671 11.4951L17.9943 14.1626C17.8568 14.3001 17.6735 14.3734 17.4993 14.3734C17.316 14.3734 17.1327 14.3001 16.9952 14.1626C16.7202 13.8876 16.7202 13.4384 16.9952 13.1634L18.4618 11.7059H14.6668V10.2943H18.4618L16.9952 8.83677C16.7202 8.56177 16.7202 8.1126 16.9952 7.8376Z" fill="#EFEEE0"/>
</g>
</svg>
