<svg width="52" height="61" viewBox="0 0 52 61" fill="none" xmlns="http://www.w3.org/2000/svg">
<path d="M0.999995 17.6196C1.55214 17.6196 2 17.172 2 16.6196C2 16.0675 1.55214 15.6196 0.999995 15.6196C0.447615 15.6196 0 16.0675 0 16.6196C0 17.172 0.447615 17.6196 0.999995 17.6196Z" fill="#00FFF0"/>
<path d="M10.8351 17.5459C11.3875 17.5459 11.8351 17.0983 11.8351 16.5459C11.8351 15.9935 11.3875 15.5459 10.8351 15.5459C10.2829 15.5459 9.83508 15.9935 9.83508 16.5459C9.83508 17.0983 10.2829 17.5459 10.8351 17.5459Z" fill="#00FFF0"/>
<path d="M5.91772 20.4436C6.4701 20.4436 6.91772 19.9957 6.91772 19.4436C6.91772 18.8912 6.4701 18.4436 5.91772 18.4436C5.36558 18.4436 4.91772 18.8912 4.91772 19.4436C4.91772 19.9957 5.36558 20.4436 5.91772 20.4436Z" fill="#00FFF0"/>
<path d="M0.999995 23.3518C1.55214 23.3518 2 22.9039 2 22.3518C2 21.7994 1.55214 21.3518 0.999995 21.3518C0.447615 21.3518 0 21.7994 0 22.3518C0 22.9039 0.447615 23.3518 0.999995 23.3518Z" fill="#00FFF0"/>
<path d="M20.4443 17.4854C21.1347 17.4854 21.6943 16.9256 21.6943 16.2354C21.6943 15.545 21.1347 14.9854 20.4443 14.9854C19.7541 14.9854 19.1943 15.545 19.1943 16.2354C19.1943 16.9256 19.7541 17.4854 20.4443 17.4854Z" fill="#00FFF0"/>
<path d="M15.5266 20.3936C16.217 20.3936 16.7766 19.8338 16.7766 19.1436C16.7766 18.4532 16.217 17.8936 15.5266 17.8936C14.8362 17.8936 14.2766 18.4532 14.2766 19.1436C14.2766 19.8338 14.8362 20.3936 15.5266 20.3936Z" fill="#00FFF0"/>
<path d="M10.6093 23.3018C11.2996 23.3018 11.8593 22.742 11.8593 22.0518C11.8593 21.3614 11.2996 20.8018 10.6093 20.8018C9.91888 20.8018 9.35925 21.3614 9.35925 22.0518C9.35925 22.742 9.91888 23.3018 10.6093 23.3018Z" fill="#00FFF0"/>
<path d="M5.6919 26.1995C6.38227 26.1995 6.94189 25.6397 6.94189 24.9495C6.94189 24.2591 6.38227 23.6995 5.6919 23.6995C5.00152 23.6995 4.44189 24.2591 4.44189 24.9495C4.44189 25.6397 5.00152 26.1995 5.6919 26.1995Z" fill="#00FFF0"/>
<path d="M0.999995 29.0835C1.55214 29.0835 2 28.6359 2 28.0835C2 27.5311 1.55214 27.0835 0.999995 27.0835C0.447615 27.0835 0 27.5311 0 28.0835C0 28.6359 0.447615 29.0835 0.999995 29.0835Z" fill="#00FFF0"/>
<path d="M20.1145 23.4773C21.1307 23.4773 21.9546 22.6535 21.9546 21.6372C21.9546 20.6209 21.1307 19.7971 20.1145 19.7971C19.0982 19.7971 18.2744 20.6209 18.2744 21.6372C18.2744 22.6535 19.0982 23.4773 20.1145 23.4773Z" fill="#00FFF0"/>
<path d="M15.1968 26.3855C16.2131 26.3855 17.0369 25.5617 17.0369 24.5454C17.0369 23.5291 16.2131 22.7053 15.1968 22.7053C14.1806 22.7053 13.3567 23.5291 13.3567 24.5454C13.3567 25.5617 14.1806 26.3855 15.1968 26.3855Z" fill="#00FFF0"/>
<path d="M10.2792 29.2832C11.2954 29.2832 12.1193 28.4594 12.1193 27.4431C12.1193 26.4268 11.2954 25.603 10.2792 25.603C9.2629 25.603 8.43909 26.4268 8.43909 27.4431C8.43909 28.4594 9.2629 29.2832 10.2792 29.2832Z" fill="#00FFF0"/>
<path d="M5.6919 31.9312C6.38227 31.9312 6.94189 31.3715 6.94189 30.6812C6.94189 29.9908 6.38227 29.4312 5.6919 29.4312C5.00152 29.4312 4.44189 29.9908 4.44189 30.6812C4.44189 31.3715 5.00152 31.9312 5.6919 31.9312Z" fill="#00FFF0"/>
<path d="M0.999995 34.8152C1.55214 34.8152 2 34.3676 2 33.8152C2 33.263 1.55214 32.8152 0.999995 32.8152C0.447615 32.8152 0 33.263 0 33.8152C0 34.3676 0.447615 34.8152 0.999995 34.8152Z" fill="#00FFF0"/>
<path d="M20.1145 29.209C21.1307 29.209 21.9546 28.3852 21.9546 27.3689C21.9546 26.3527 21.1307 25.5288 20.1145 25.5288C19.0982 25.5288 18.2744 26.3527 18.2744 27.3689C18.2744 28.3852 19.0982 29.209 20.1145 29.209Z" fill="#00FFF0"/>
<path d="M15.1968 32.1067C16.2131 32.1067 17.0369 31.2829 17.0369 30.2666C17.0369 29.2504 16.2131 28.4265 15.1968 28.4265C14.1806 28.4265 13.3567 29.2504 13.3567 30.2666C13.3567 31.2829 14.1806 32.1067 15.1968 32.1067Z" fill="#00FFF0"/>
<path d="M10.2792 35.0149C11.2954 35.0149 12.1193 34.1911 12.1193 33.1748C12.1193 32.1586 11.2954 31.3347 10.2792 31.3347C9.2629 31.3347 8.43909 32.1586 8.43909 33.1748C8.43909 34.1911 9.2629 35.0149 10.2792 35.0149Z" fill="#00FFF0"/>
<path d="M5.6919 37.6628C6.38227 37.6628 6.94189 37.1032 6.94189 36.4128C6.94189 35.7225 6.38227 35.1628 5.6919 35.1628C5.00152 35.1628 4.44189 35.7225 4.44189 36.4128C4.44189 37.1032 5.00152 37.6628 5.6919 37.6628Z" fill="#00FFF0"/>
<path d="M0.999995 40.5471C1.55214 40.5471 2 40.0995 2 39.5471C2 38.9947 1.55214 38.5471 0.999995 38.5471C0.447615 38.5471 0 38.9947 0 39.5471C0 40.0995 0.447615 40.5471 0.999995 40.5471Z" fill="#00FFF0"/>
<path d="M25.4499 31.7727C26.1403 31.7727 26.7 31.2131 26.7 30.5227C26.7 29.8323 26.1403 29.2727 25.4499 29.2727C24.7597 29.2727 24.2 29.8323 24.2 30.5227C24.2 31.2131 24.7597 31.7727 25.4499 31.7727Z" fill="#00FFF0"/>
<path d="M20.4443 34.6702C21.1347 34.6702 21.6943 34.1104 21.6943 33.4202C21.6943 32.7298 21.1347 32.1702 20.4443 32.1702C19.7541 32.1702 19.1943 32.7298 19.1943 33.4202C19.1943 34.1104 19.7541 34.6702 20.4443 34.6702Z" fill="#00FFF0"/>
<path d="M15.5266 37.5784C16.217 37.5784 16.7766 37.0186 16.7766 36.3284C16.7766 35.638 16.217 35.0784 15.5266 35.0784C14.8362 35.0784 14.2766 35.638 14.2766 36.3284C14.2766 37.0186 14.8362 37.5784 15.5266 37.5784Z" fill="#00FFF0"/>
<path d="M10.6093 40.4866C11.2996 40.4866 11.8593 39.9268 11.8593 39.2366C11.8593 38.5462 11.2996 37.9866 10.6093 37.9866C9.91888 37.9866 9.35925 38.5462 9.35925 39.2366C9.35925 39.9268 9.91888 40.4866 10.6093 40.4866Z" fill="#00FFF0"/>
<path d="M5.91772 43.3706C6.4701 43.3706 6.91772 42.923 6.91772 42.3706C6.91772 41.8185 6.4701 41.3706 5.91772 41.3706C5.36558 41.3706 4.91772 41.8185 4.91772 42.3706C4.91772 42.923 5.36558 43.3706 5.91772 43.3706Z" fill="#00FFF0"/>
<path d="M0.999995 46.2788C1.55214 46.2788 2 45.8312 2 45.2788C2 44.7267 1.55214 44.2788 0.999995 44.2788C0.447615 44.2788 0 44.7267 0 45.2788C0 45.8312 0.447615 46.2788 0.999995 46.2788Z" fill="#00FFF0"/>
<path d="M25.5 37.4695C26.0521 37.4695 26.5 37.0219 26.5 36.4695C26.5 35.9173 26.0521 35.4695 25.5 35.4695C24.9476 35.4695 24.5 35.9173 24.5 36.4695C24.5 37.0219 24.9476 37.4695 25.5 37.4695Z" fill="#00FFF0"/>
<path d="M20.6702 40.3777C21.2225 40.3777 21.6702 39.9301 21.6702 39.3777C21.6702 38.8255 21.2225 38.3777 20.6702 38.3777C20.118 38.3777 19.6702 38.8255 19.6702 39.3777C19.6702 39.9301 20.118 40.3777 20.6702 40.3777Z" fill="#00FFF0"/>
<path d="M15.7527 43.2859C16.3051 43.2859 16.7527 42.8383 16.7527 42.2859C16.7527 41.7337 16.3051 41.2859 15.7527 41.2859C15.2003 41.2859 14.7527 41.7337 14.7527 42.2859C14.7527 42.8383 15.2003 43.2859 15.7527 43.2859Z" fill="#00FFF0"/>
<path d="M10.8351 46.1941C11.3875 46.1941 11.8351 45.7465 11.8351 45.1941C11.8351 44.6419 11.3875 44.1941 10.8351 44.1941C10.2829 44.1941 9.83508 44.6419 9.83508 45.1941C9.83508 45.7465 10.2829 46.1941 10.8351 46.1941Z" fill="#00FFF0"/>
<path d="M5.91772 49.1023C6.4701 49.1023 6.91772 48.6547 6.91772 48.1023C6.91772 47.5501 6.4701 47.1023 5.91772 47.1023C5.36558 47.1023 4.91772 47.5501 4.91772 48.1023C4.91772 48.6547 5.36558 49.1023 5.91772 49.1023Z" fill="#00FFF0"/>
<path d="M25.5 43.2017C26.0521 43.2017 26.5 42.754 26.5 42.2017C26.5 41.6493 26.0521 41.2017 25.5 41.2017C24.9476 41.2017 24.5 41.6493 24.5 42.2017C24.5 42.754 24.9476 43.2017 25.5 43.2017Z" fill="#00FFF0"/>
<path d="M20.6702 46.1099C21.2225 46.1099 21.6702 45.6623 21.6702 45.1099C21.6702 44.5575 21.2225 44.1099 20.6702 44.1099C20.118 44.1099 19.6702 44.5575 19.6702 45.1099C19.6702 45.6623 20.118 46.1099 20.6702 46.1099Z" fill="#00FFF0"/>
<path d="M15.7527 49.0181C16.3051 49.0181 16.7527 48.5705 16.7527 48.0181C16.7527 47.4657 16.3051 47.0181 15.7527 47.0181C15.2003 47.0181 14.7527 47.4657 14.7527 48.0181C14.7527 48.5705 15.2003 49.0181 15.7527 49.0181Z" fill="#00FFF0"/>
<path d="M10.8351 51.9263C11.3875 51.9263 11.8351 51.4787 11.8351 50.9263C11.8351 50.3739 11.3875 49.9263 10.8351 49.9263C10.2829 49.9263 9.83508 50.3739 9.83508 50.9263C9.83508 51.4787 10.2829 51.9263 10.8351 51.9263Z" fill="#00FFF0"/>
<path d="M25.5 48.9333C26.0521 48.9333 26.5 48.4857 26.5 47.9334C26.5 47.3812 26.0521 46.9333 25.5 46.9333C24.9476 46.9333 24.5 47.3812 24.5 47.9334C24.5 48.4857 24.9476 48.9333 25.5 48.9333Z" fill="#00FFF0"/>
<path d="M20.6702 51.8416C21.2225 51.8416 21.6702 51.3939 21.6702 50.8416C21.6702 50.2894 21.2225 49.8416 20.6702 49.8416C20.118 49.8416 19.6702 50.2894 19.6702 50.8416C19.6702 51.3939 20.118 51.8416 20.6702 51.8416Z" fill="#00FFF0"/>
<path d="M15.7527 54.7498C16.3051 54.7498 16.7527 54.3021 16.7527 53.7498C16.7527 53.1976 16.3051 52.7498 15.7527 52.7498C15.2003 52.7498 14.7527 53.1976 14.7527 53.7498C14.7527 54.3021 15.2003 54.7498 15.7527 54.7498Z" fill="#00FFF0"/>
<path d="M25.5 54.665C26.0521 54.665 26.5 54.2174 26.5 53.665C26.5 53.1129 26.0521 52.665 25.5 52.665C24.9476 52.665 24.5 53.1129 24.5 53.665C24.5 54.2174 24.9476 54.665 25.5 54.665Z" fill="#00FFF0"/>
<path d="M20.6702 57.5732C21.2225 57.5732 21.6702 57.1256 21.6702 56.5732C21.6702 56.0211 21.2225 55.5732 20.6702 55.5732C20.118 55.5732 19.6702 56.0211 19.6702 56.5732C19.6702 57.1256 20.118 57.5732 20.6702 57.5732Z" fill="#00FFF0"/>
<path d="M25.5 60.397C26.0521 60.397 26.5 59.9493 26.5 59.397C26.5 58.8448 26.0521 58.397 25.5 58.397C24.9476 58.397 24.5 58.8448 24.5 59.397C24.5 59.9493 24.9476 60.397 25.5 60.397Z" fill="#00FFF0"/>
<path d="M50.1117 17.6196C50.6638 17.6196 51.1116 17.172 51.1116 16.6196C51.1116 16.0675 50.6638 15.6196 50.1117 15.6196C49.5594 15.6196 49.1116 16.0675 49.1116 16.6196C49.1116 17.172 49.5594 17.6196 50.1117 17.6196Z" fill="#00FFF0"/>
<path d="M40.2662 17.5459C40.8186 17.5459 41.2662 17.0983 41.2662 16.5459C41.2662 15.9935 40.8186 15.5459 40.2662 15.5459C39.7141 15.5459 39.2662 15.9935 39.2662 16.5459C39.2662 17.0983 39.7141 17.5459 40.2662 17.5459Z" fill="#00FFF0"/>
<path d="M45.1945 20.4436C45.7466 20.4436 46.1942 19.9957 46.1942 19.4436C46.1942 18.8912 45.7466 18.4436 45.1945 18.4436C44.6421 18.4436 44.1942 18.8912 44.1942 19.4436C44.1942 19.9957 44.6421 20.4436 45.1945 20.4436Z" fill="#00FFF0"/>
<path d="M50.1117 23.3518C50.6638 23.3518 51.1116 22.9039 51.1116 22.3518C51.1116 21.7994 50.6638 21.3518 50.1117 21.3518C49.5594 21.3518 49.1116 21.7994 49.1116 22.3518C49.1116 22.9039 49.5594 23.3518 50.1117 23.3518Z" fill="#00FFF0"/>
<path d="M25.05 14.5771C25.7404 14.5771 26.3 14.0174 26.3 13.3271C26.3 12.6368 25.7404 12.0771 25.05 12.0771C24.3597 12.0771 23.8 12.6368 23.8 13.3271C23.8 14.0174 24.3597 14.5771 25.05 14.5771Z" fill="#00FFF0"/>
<path d="M30.2055 17.4854C30.8957 17.4854 31.4553 16.9256 31.4553 16.2354C31.4553 15.545 30.8957 14.9854 30.2055 14.9854C29.5151 14.9854 28.9553 15.545 28.9553 16.2354C28.9553 16.9256 29.5151 17.4854 30.2055 17.4854Z" fill="#00FFF0"/>
<path d="M35.1229 20.3936C35.8133 20.3936 36.3729 19.8338 36.3729 19.1436C36.3729 18.4532 35.8133 17.8936 35.1229 17.8936C34.4326 17.8936 33.8729 18.4532 33.8729 19.1436C33.8729 19.8338 34.4326 20.3936 35.1229 20.3936Z" fill="#00FFF0"/>
<path d="M40.0404 23.3018C40.7308 23.3018 41.2904 22.742 41.2904 22.0518C41.2904 21.3614 40.7308 20.8018 40.0404 20.8018C39.35 20.8018 38.7904 21.3614 38.7904 22.0518C38.7904 22.742 39.35 23.3018 40.0404 23.3018Z" fill="#00FFF0"/>
<path d="M44.9684 26.1995C45.6588 26.1995 46.2184 25.6397 46.2184 24.9495C46.2184 24.2591 45.6588 23.6995 44.9684 23.6995C44.278 23.6995 43.7184 24.2591 43.7184 24.9495C43.7184 25.6397 44.278 26.1995 44.9684 26.1995Z" fill="#00FFF0"/>
<path d="M50.1117 29.0835C50.6638 29.0835 51.1116 28.6359 51.1116 28.0835C51.1116 27.5311 50.6638 27.0835 50.1117 27.0835C49.5594 27.0835 49.1116 27.5311 49.1116 28.0835C49.1116 28.6359 49.5594 29.0835 50.1117 29.0835Z" fill="#00FFF0"/>
<path d="M24.9578 20.5691C25.9741 20.5691 26.7979 19.7453 26.7979 18.729C26.7979 17.7127 25.9741 16.8889 24.9578 16.8889C23.9415 16.8889 23.1177 17.7127 23.1177 18.729C23.1177 19.7453 23.9415 20.5691 24.9578 20.5691Z" fill="#00FFF0"/>
<path d="M29.8755 23.4773C30.8918 23.4773 31.7156 22.6535 31.7156 21.6372C31.7156 20.6209 30.8918 19.7971 29.8755 19.7971C28.8592 19.7971 28.0354 20.6209 28.0354 21.6372C28.0354 22.6535 28.8592 23.4773 29.8755 23.4773Z" fill="#00FFF0"/>
<path d="M34.7929 26.3855C35.8091 26.3855 36.633 25.5617 36.633 24.5454C36.633 23.5291 35.8091 22.7053 34.7929 22.7053C33.7766 22.7053 32.9528 23.5291 32.9528 24.5454C32.9528 25.5617 33.7766 26.3855 34.7929 26.3855Z" fill="#00FFF0"/>
<path d="M39.7102 29.2832C40.7265 29.2832 41.5503 28.4594 41.5503 27.4431C41.5503 26.4268 40.7265 25.603 39.7102 25.603C38.6941 25.603 37.8702 26.4268 37.8702 27.4431C37.8702 28.4594 38.6941 29.2832 39.7102 29.2832Z" fill="#00FFF0"/>
<path d="M44.9684 31.9312C45.6588 31.9312 46.2184 31.3715 46.2184 30.6812C46.2184 29.9908 45.6588 29.4312 44.9684 29.4312C44.278 29.4312 43.7184 29.9908 43.7184 30.6812C43.7184 31.3715 44.278 31.9312 44.9684 31.9312Z" fill="#00FFF0"/>
<path d="M50.1117 34.8152C50.6638 34.8152 51.1116 34.3676 51.1116 33.8152C51.1116 33.263 50.6638 32.8152 50.1117 32.8152C49.5594 32.8152 49.1116 33.263 49.1116 33.8152C49.1116 34.3676 49.5594 34.8152 50.1117 34.8152Z" fill="#00FFF0"/>
<path d="M24.9578 26.3008C25.9741 26.3008 26.7979 25.477 26.7979 24.4607C26.7979 23.4445 25.9741 22.6206 24.9578 22.6206C23.9415 22.6206 23.1177 23.4445 23.1177 24.4607C23.1177 25.477 23.9415 26.3008 24.9578 26.3008Z" fill="#00FFF0"/>
<path d="M29.8755 29.209C30.8918 29.209 31.7156 28.3852 31.7156 27.3689C31.7156 26.3527 30.8918 25.5288 29.8755 25.5288C28.8592 25.5288 28.0354 26.3527 28.0354 27.3689C28.0354 28.3852 28.8592 29.209 29.8755 29.209Z" fill="#00FFF0"/>
<path d="M34.7929 32.1067C35.8091 32.1067 36.633 31.2829 36.633 30.2666C36.633 29.2504 35.8091 28.4265 34.7929 28.4265C33.7766 28.4265 32.9528 29.2504 32.9528 30.2666C32.9528 31.2829 33.7766 32.1067 34.7929 32.1067Z" fill="#00FFF0"/>
<path d="M39.7102 35.0149C40.7265 35.0149 41.5503 34.1911 41.5503 33.1748C41.5503 32.1586 40.7265 31.3347 39.7102 31.3347C38.6941 31.3347 37.8702 32.1586 37.8702 33.1748C37.8702 34.1911 38.6941 35.0149 39.7102 35.0149Z" fill="#00FFF0"/>
<path d="M44.9684 37.6628C45.6588 37.6628 46.2184 37.1032 46.2184 36.4128C46.2184 35.7225 45.6588 35.1628 44.9684 35.1628C44.278 35.1628 43.7184 35.7225 43.7184 36.4128C43.7184 37.1032 44.278 37.6628 44.9684 37.6628Z" fill="#00FFF0"/>
<path d="M50.1117 40.5471C50.6638 40.5471 51.1116 40.0995 51.1116 39.5471C51.1116 38.9947 50.6638 38.5471 50.1117 38.5471C49.5594 38.5471 49.1116 38.9947 49.1116 39.5471C49.1116 40.0995 49.5594 40.5471 50.1117 40.5471Z" fill="#00FFF0"/>
<path d="M30.2055 34.6702C30.8957 34.6702 31.4553 34.1104 31.4553 33.4202C31.4553 32.7298 30.8957 32.1702 30.2055 32.1702C29.5151 32.1702 28.9553 32.7298 28.9553 33.4202C28.9553 34.1104 29.5151 34.6702 30.2055 34.6702Z" fill="#00FFF0"/>
<path d="M35.1229 37.5784C35.8133 37.5784 36.3729 37.0186 36.3729 36.3284C36.3729 35.638 35.8133 35.0784 35.1229 35.0784C34.4326 35.0784 33.8729 35.638 33.8729 36.3284C33.8729 37.0186 34.4326 37.5784 35.1229 37.5784Z" fill="#00FFF0"/>
<path d="M40.0404 40.4866C40.7308 40.4866 41.2904 39.9268 41.2904 39.2366C41.2904 38.5462 40.7308 37.9866 40.0404 37.9866C39.35 37.9866 38.7904 38.5462 38.7904 39.2366C38.7904 39.9268 39.35 40.4866 40.0404 40.4866Z" fill="#00FFF0"/>
<path d="M45.1945 43.3706C45.7466 43.3706 46.1942 42.923 46.1942 42.3706C46.1942 41.8185 45.7466 41.3706 45.1945 41.3706C44.6421 41.3706 44.1942 41.8185 44.1942 42.3706C44.1942 42.923 44.6421 43.3706 45.1945 43.3706Z" fill="#00FFF0"/>
<path d="M50.1117 46.2788C50.6638 46.2788 51.1116 45.8312 51.1116 45.2788C51.1116 44.7267 50.6638 44.2788 50.1117 44.2788C49.5594 44.2788 49.1116 44.7267 49.1116 45.2788C49.1116 45.8312 49.5594 46.2788 50.1117 46.2788Z" fill="#00FFF0"/>
<path d="M30.4312 40.3777C30.9835 40.3777 31.4312 39.9301 31.4312 39.3777C31.4312 38.8255 30.9835 38.3777 30.4312 38.3777C29.8788 38.3777 29.4312 38.8255 29.4312 39.3777C29.4312 39.9301 29.8788 40.3777 30.4312 40.3777Z" fill="#00FFF0"/>
<path d="M35.3485 43.2859C35.9009 43.2859 36.3485 42.8383 36.3485 42.2859C36.3485 41.7337 35.9009 41.2859 35.3485 41.2859C34.7961 41.2859 34.3485 41.7337 34.3485 42.2859C34.3485 42.8383 34.7961 43.2859 35.3485 43.2859Z" fill="#00FFF0"/>
<path d="M40.2662 46.1941C40.8186 46.1941 41.2662 45.7465 41.2662 45.1941C41.2662 44.6419 40.8186 44.1941 40.2662 44.1941C39.7141 44.1941 39.2662 44.6419 39.2662 45.1941C39.2662 45.7465 39.7141 46.1941 40.2662 46.1941Z" fill="#00FFF0"/>
<path d="M45.1945 49.1023C45.7466 49.1023 46.1942 48.6547 46.1942 48.1023C46.1942 47.5501 45.7466 47.1023 45.1945 47.1023C44.6421 47.1023 44.1942 47.5501 44.1942 48.1023C44.1942 48.6547 44.6421 49.1023 45.1945 49.1023Z" fill="#00FFF0"/>
<path d="M30.4312 46.1099C30.9835 46.1099 31.4312 45.6623 31.4312 45.1099C31.4312 44.5575 30.9835 44.1099 30.4312 44.1099C29.8788 44.1099 29.4312 44.5575 29.4312 45.1099C29.4312 45.6623 29.8788 46.1099 30.4312 46.1099Z" fill="#00FFF0"/>
<path d="M35.3485 49.0181C35.9009 49.0181 36.3485 48.5705 36.3485 48.0181C36.3485 47.4657 35.9009 47.0181 35.3485 47.0181C34.7961 47.0181 34.3485 47.4657 34.3485 48.0181C34.3485 48.5705 34.7961 49.0181 35.3485 49.0181Z" fill="#00FFF0"/>
<path d="M40.2662 51.9263C40.8186 51.9263 41.2662 51.4787 41.2662 50.9263C41.2662 50.3739 40.8186 49.9263 40.2662 49.9263C39.7141 49.9263 39.2662 50.3739 39.2662 50.9263C39.2662 51.4787 39.7141 51.9263 40.2662 51.9263Z" fill="#00FFF0"/>
<path d="M30.4312 51.8416C30.9835 51.8416 31.4312 51.3939 31.4312 50.8416C31.4312 50.2894 30.9835 49.8416 30.4312 49.8416C29.8788 49.8416 29.4312 50.2894 29.4312 50.8416C29.4312 51.3939 29.8788 51.8416 30.4312 51.8416Z" fill="#00FFF0"/>
<path d="M35.3485 54.7498C35.9009 54.7498 36.3485 54.3021 36.3485 53.7498C36.3485 53.1976 35.9009 52.7498 35.3485 52.7498C34.7961 52.7498 34.3485 53.1976 34.3485 53.7498C34.3485 54.3021 34.7961 54.7498 35.3485 54.7498Z" fill="#00FFF0"/>
<path d="M30.4312 57.5732C30.9835 57.5732 31.4312 57.1256 31.4312 56.5732C31.4312 56.0211 30.9835 55.5732 30.4312 55.5732C29.8788 55.5732 29.4312 56.0211 29.4312 56.5732C29.4312 57.1256 29.8788 57.5732 30.4312 57.5732Z" fill="#00FFF0"/>
<path d="M25.5 60.397C26.0521 60.397 26.5 59.9493 26.5 59.397C26.5 58.8448 26.0521 58.397 25.5 58.397C24.9476 58.397 24.5 58.8448 24.5 59.397C24.5 59.9493 24.9476 60.397 25.5 60.397Z" fill="#00FFF0"/>
<path d="M24.8001 2C25.3522 2 25.8 1.55238 25.8 0.999995C25.8 0.447853 25.3522 0 24.8001 0C24.2477 0 23.8 0.447853 23.8 0.999995C23.8 1.55238 24.2477 2 24.8001 2Z" fill="#00FFF0"/>
<path d="M20.0887 4.9082C20.6409 4.9082 21.0885 4.46058 21.0885 3.9082C21.0885 3.35606 20.6409 2.9082 20.0887 2.9082C19.5364 2.9082 19.0885 3.35606 19.0885 3.9082C19.0885 4.46058 19.5364 4.9082 20.0887 4.9082Z" fill="#00FFF0"/>
<path d="M15.1708 7.81641C15.7232 7.81641 16.1708 7.36878 16.1708 6.8164C16.1708 6.26426 15.7232 5.81641 15.1708 5.81641C14.6186 5.81641 14.1708 6.26426 14.1708 6.8164C14.1708 7.36878 14.6186 7.81641 15.1708 7.81641Z" fill="#00FFF0"/>
<path d="M10.2534 10.7246C10.8056 10.7246 11.2534 10.277 11.2534 9.7246C11.2534 9.17246 10.8056 8.72461 10.2534 8.72461C9.70103 8.72461 9.25342 9.17246 9.25342 9.7246C9.25342 10.277 9.70103 10.7246 10.2534 10.7246Z" fill="#00FFF0"/>
<path d="M5.33593 13.6328C5.88808 13.6328 6.33594 13.1852 6.33594 12.6328C6.33594 12.0807 5.88808 11.6328 5.33593 11.6328C4.78355 11.6328 4.33594 12.0807 4.33594 12.6328C4.33594 13.1852 4.78355 13.6328 5.33593 13.6328Z" fill="#00FFF0"/>
<path d="M20.0887 10.6401C20.6409 10.6401 21.0885 10.1923 21.0885 9.64013C21.0885 9.08775 20.6409 8.64014 20.0887 8.64014C19.5364 8.64014 19.0885 9.08775 19.0885 9.64013C19.0885 10.1923 19.5364 10.6401 20.0887 10.6401Z" fill="#00FFF0"/>
<path d="M15.1708 13.5483C15.7232 13.5483 16.1708 13.1005 16.1708 12.5483C16.1708 11.996 15.7232 11.5483 15.1708 11.5483C14.6186 11.5483 14.1708 11.996 14.1708 12.5483C14.1708 13.1005 14.6186 13.5483 15.1708 13.5483Z" fill="#00FFF0"/>
<path d="M24.8 2C25.3524 2 25.8 1.55238 25.8 0.999995C25.8 0.447853 25.3524 0 24.8 0C24.2479 0 23.8 0.447853 23.8 0.999995C23.8 1.55238 24.2479 2 24.8 2Z" fill="#00FFF0"/>
<path d="M29.8495 4.9082C30.4019 4.9082 30.8495 4.46058 30.8495 3.9082C30.8495 3.35606 30.4019 2.9082 29.8495 2.9082C29.2973 2.9082 28.8495 3.35606 28.8495 3.9082C28.8495 4.46058 29.2973 4.9082 29.8495 4.9082Z" fill="#00FFF0"/>
<path d="M34.7671 7.81641C35.3192 7.81641 35.7671 7.36878 35.7671 6.8164C35.7671 6.26426 35.3192 5.81641 34.7671 5.81641C34.2147 5.81641 33.7671 6.26426 33.7671 6.8164C33.7671 7.36878 34.2147 7.81641 34.7671 7.81641Z" fill="#00FFF0"/>
<path d="M39.6846 10.7246C40.237 10.7246 40.6846 10.277 40.6846 9.7246C40.6846 9.17246 40.237 8.72461 39.6846 8.72461C39.1322 8.72461 38.6846 9.17246 38.6846 9.7246C38.6846 10.277 39.1322 10.7246 39.6846 10.7246Z" fill="#00FFF0"/>
<path d="M44.6126 13.6328C45.1649 13.6328 45.6125 13.1852 45.6125 12.6328C45.6125 12.0807 45.1649 11.6328 44.6126 11.6328C44.0602 11.6328 43.6125 12.0807 43.6125 12.6328C43.6125 13.1852 44.0602 13.6328 44.6126 13.6328Z" fill="#00FFF0"/>
<path d="M24.8 7.73193C25.3524 7.73193 25.8 7.28407 25.8 6.73193C25.8 6.17955 25.3524 5.73193 24.8 5.73193C24.2479 5.73193 23.8 6.17955 23.8 6.73193C23.8 7.28407 24.2479 7.73193 24.8 7.73193Z" fill="#00FFF0"/>
<path d="M29.8495 10.6401C30.4019 10.6401 30.8495 10.1923 30.8495 9.64013C30.8495 9.08775 30.4019 8.64014 29.8495 8.64014C29.2973 8.64014 28.8495 9.08775 28.8495 9.64013C28.8495 10.1923 29.2973 10.6401 29.8495 10.6401Z" fill="#00FFF0"/>
<path d="M34.7671 13.5483C35.3192 13.5483 35.7671 13.1005 35.7671 12.5483C35.7671 11.996 35.3192 11.5483 34.7671 11.5483C34.2147 11.5483 33.7671 11.996 33.7671 12.5483C33.7671 13.1005 34.2147 13.5483 34.7671 13.5483Z" fill="#00FFF0"/>
</svg>
