<svg width="16" height="16" viewBox="0 0 16 16" fill="none" xmlns="http://www.w3.org/2000/svg">
<path d="M8.00004 1.33325C11.6744 1.33325 14.6667 4.32409 14.6667 8.00378C14.6667 11.6758 11.6744 14.6666 8.00004 14.6666C4.32565 14.6666 1.33337 11.6758 1.33337 8.00378C1.33337 4.32409 4.32565 1.33325 8.00004 1.33325ZM7.24071 5.35319C7.09914 5.35319 6.964 5.38535 6.8353 5.44967C6.67443 5.53972 6.54573 5.68122 6.47494 5.84845C6.4299 5.96422 6.35911 6.31154 6.35911 6.31798C6.28833 6.69746 6.24972 7.31492 6.24972 7.9967C6.24972 8.64697 6.28833 9.23806 6.34624 9.62397C6.35268 9.63041 6.42346 10.0613 6.50068 10.2093C6.64225 10.4794 6.91896 10.6466 7.21497 10.6466H7.24071C7.43376 10.6402 7.83916 10.473 7.83916 10.4666C8.52128 10.1835 9.86619 9.30238 10.4067 8.71708L10.4453 8.67848C10.5161 8.60773 10.6062 8.49839 10.6255 8.47266C10.7285 8.33759 10.78 8.17036 10.78 8.00378C10.78 7.81661 10.722 7.64295 10.6127 7.50145C10.5869 7.47572 10.4904 7.36638 10.4003 7.27633C9.87263 6.71032 8.49554 5.78413 7.77481 5.50112C7.66542 5.45674 7.38871 5.35962 7.24071 5.35319Z" fill="#00FFF0"/>
</svg>
