<svg width="22" height="22" viewBox="0 0 22 22" fill="none" xmlns="http://www.w3.org/2000/svg">
<g opacity="0.25">
<path d="M11 1.83325C8.59834 1.83325 6.64584 3.78575 6.64584 6.18742C6.64584 8.54325 8.48834 10.4499 10.89 10.5324C10.9633 10.5233 11.0367 10.5233 11.0917 10.5324C11.11 10.5324 11.1192 10.5324 11.1375 10.5324C11.1467 10.5324 11.1467 10.5324 11.1558 10.5324C13.5025 10.4499 15.345 8.54325 15.3542 6.18742C15.3542 3.78575 13.4017 1.83325 11 1.83325Z" fill="#EFEEE0"/>
<path d="M15.6567 12.9709C13.0992 11.2659 8.92836 11.2659 6.35253 12.9709C5.18836 13.7501 4.54669 14.8042 4.54669 15.9317C4.54669 17.0592 5.18836 18.1042 6.34336 18.8742C7.62669 19.7359 9.31336 20.1667 11 20.1667C12.6867 20.1667 14.3734 19.7359 15.6567 18.8742C16.8117 18.0951 17.4534 17.0501 17.4534 15.9134C17.4442 14.7859 16.8117 13.7409 15.6567 12.9709Z" fill="#EFEEE0"/>
</g>
</svg>
