<svg width="22" height="22" viewBox="0 0 22 22" fill="none" xmlns="http://www.w3.org/2000/svg">
<path d="M7.10413 1.8335V4.5835H6.41663C6.17829 4.5835 5.94913 4.59266 5.72913 4.62933V1.8335C5.72913 1.45766 6.04079 1.146 6.41663 1.146C6.79246 1.146 7.10413 1.45766 7.10413 1.8335Z" fill="#EFEEE0" fill-opacity="0.25"/>
<path d="M15.5834 4.5835H6.41671C6.17837 4.5835 5.94921 4.59266 5.72921 4.62933C3.36421 4.90433 1.83337 6.65516 1.83337 9.16683V15.5835C1.83337 18.3335 3.66671 20.1668 6.41671 20.1668H15.5834C18.3334 20.1668 20.1667 18.3335 20.1667 15.5835V9.16683C20.1667 6.41683 18.3334 4.5835 15.5834 4.5835ZM7.22337 14.6668C5.95837 14.6668 4.93171 13.6402 4.93171 12.3752C4.93171 11.1102 5.95837 10.0835 7.22337 10.0835C8.48837 10.0835 9.51504 11.1102 9.51504 12.3752C9.51504 13.6402 8.48837 14.6668 7.22337 14.6668ZM13.1817 14.896H12.7234C12.3475 14.896 12.0359 14.5843 12.0359 14.2085C12.0359 13.8327 12.3475 13.521 12.7234 13.521H13.1817C13.5575 13.521 13.8692 13.8327 13.8692 14.2085C13.8692 14.5843 13.5575 14.896 13.1817 14.896ZM16.39 14.896H15.9317C15.5559 14.896 15.2442 14.5843 15.2442 14.2085C15.2442 13.8327 15.5559 13.521 15.9317 13.521H16.39C16.7659 13.521 17.0775 13.8327 17.0775 14.2085C17.0775 14.5843 16.7659 14.896 16.39 14.896ZM16.39 11.2293H12.7234C12.3475 11.2293 12.0359 10.9177 12.0359 10.5418C12.0359 10.166 12.3475 9.85433 12.7234 9.85433H16.39C16.7659 9.85433 17.0775 10.166 17.0775 10.5418C17.0775 10.9177 16.7659 11.2293 16.39 11.2293Z" fill="#EFEEE0" fill-opacity="0.25"/>
</svg>
