<svg width="21" height="20" viewBox="0 0 21 20" fill="none" xmlns="http://www.w3.org/2000/svg">
<path d="M3.42125 14.3169C3.255 14.3169 3.08875 14.2585 2.9575 14.1335C1.75875 12.9835 1.09375 11.4669 1.09375 9.85852C1.09375 6.51685 3.9375 3.80018 7.4375 3.80018L12.7488 3.81685L11.795 2.95018C11.5325 2.70852 11.5238 2.31685 11.7775 2.06685C12.0313 1.81685 12.4425 1.80852 12.705 2.05018L14.84 4.00018C15.0325 4.17518 15.0938 4.45018 14.9975 4.68352C14.9013 4.91685 14.6563 5.07518 14.385 5.07518L7.4375 5.05852C4.66375 5.05852 2.40625 7.21685 2.40625 9.86685C2.40625 11.1419 2.93125 12.3502 3.885 13.2585C4.13875 13.5002 4.13875 13.9002 3.885 14.1419C3.75375 14.2585 3.5875 14.3169 3.42125 14.3169Z" fill="white"/>
<path d="M8.74997 18.1252C8.58372 18.1252 8.42622 18.0668 8.29497 17.9502L6.15997 16.0002C5.96747 15.8252 5.90622 15.5502 6.00247 15.3168C6.10747 15.0835 6.35247 14.9585 6.61497 14.9252L13.5712 14.9418C16.345 14.9418 18.6025 12.7835 18.6025 10.1335C18.6025 8.8585 18.0775 7.65016 17.1237 6.74183C16.87 6.50016 16.87 6.10016 17.1237 5.8585C17.3775 5.61683 17.7975 5.61683 18.0512 5.8585C19.25 7.0085 19.915 8.52516 19.915 10.1335C19.915 13.4752 17.0712 16.1918 13.5712 16.1918L8.25997 16.1752L9.21372 17.0418C9.47622 17.2835 9.48497 17.6752 9.23122 17.9252C9.09122 18.0585 8.92497 18.1252 8.74997 18.1252Z" fill="white"/>
<path d="M10.7187 12.8499C10.36 12.8499 10.0625 12.5666 10.0625 12.2249V9.3999L9.89625 9.5749C9.65125 9.83323 9.24 9.8499 8.96875 9.6249C8.6975 9.3999 8.68 8.9999 8.91625 8.74156L10.2287 7.3499C10.4125 7.15823 10.7012 7.09156 10.955 7.18323C11.2088 7.28323 11.375 7.50823 11.375 7.7749V12.2332C11.375 12.5749 11.0775 12.8499 10.7187 12.8499Z" fill="white"/>
</svg>
