<svg width="21" height="20" viewBox="0 0 21 20" fill="none" xmlns="http://www.w3.org/2000/svg">
<path d="M3.42125 14.3166C3.255 14.3166 3.08875 14.2583 2.9575 14.1333C1.75875 12.9833 1.09375 11.4666 1.09375 9.85827C1.09375 6.51661 3.9375 3.79994 7.4375 3.79994L12.7488 3.81661L11.795 2.94994C11.5325 2.70827 11.5238 2.31661 11.7775 2.06661C12.0313 1.81661 12.4425 1.80827 12.705 2.04994L14.84 3.99994C15.0325 4.17494 15.0938 4.44994 14.9975 4.68327C14.9013 4.91661 14.6563 5.07494 14.385 5.07494L7.4375 5.05827C4.66375 5.05827 2.40625 7.21661 2.40625 9.86661C2.40625 11.1416 2.93125 12.3499 3.885 13.2583C4.13875 13.4999 4.13875 13.8999 3.885 14.1416C3.75375 14.2583 3.5875 14.3166 3.42125 14.3166Z" fill="white"/>
<path d="M8.74991 18.125C8.58366 18.125 8.42616 18.0667 8.29491 17.95L6.15991 16C5.96741 15.825 5.90616 15.55 6.00241 15.3167C6.10741 15.0834 6.35241 14.9584 6.61491 14.925L13.5712 14.9417C16.3449 14.9417 18.6024 12.7834 18.6024 10.1334C18.6024 8.85837 18.0774 7.65004 17.1237 6.74171C16.8699 6.50004 16.8699 6.10004 17.1237 5.85837C17.3774 5.61671 17.7974 5.61671 18.0512 5.85837C19.2499 7.00837 19.9149 8.52504 19.9149 10.1334C19.9149 13.475 17.0712 16.1917 13.5712 16.1917L8.25991 16.175L9.21366 17.0417C9.47616 17.2834 9.48491 17.675 9.23116 17.925C9.09116 18.0584 8.92491 18.125 8.74991 18.125Z" fill="white"/>
</svg>
