<svg width="14" height="15" viewBox="0 0 14 15" fill="none" xmlns="http://www.w3.org/2000/svg">
<g clip-path="url(#clip0_36_1127)">
<path d="M10.7345 9.99053C10.3689 9.99053 10.0291 10.0655 9.71501 10.2155C9.40095 10.3655 9.1361 10.5671 8.92048 10.8202L4.68766 8.3874C4.73454 8.26553 4.7697 8.13662 4.79313 8.00068C4.81657 7.86475 4.82829 7.72647 4.82829 7.58584C4.82829 7.45459 4.81657 7.32334 4.79313 7.19209C4.7697 7.06084 4.73923 6.93428 4.70173 6.8124V6.84053L8.93454 4.39365C9.15016 4.6374 9.41266 4.83193 9.72204 4.97725C10.0314 5.12256 10.3642 5.19522 10.7205 5.19522C11.3767 5.19522 11.9392 4.96084 12.408 4.49209C12.8767 4.02334 13.1111 3.46084 13.1111 2.80459C13.1111 2.13897 12.8767 1.57178 12.408 1.10303C11.9392 0.634277 11.3767 0.399902 10.7205 0.399902C10.0549 0.399902 9.48766 0.634277 9.01891 1.10303C8.55016 1.57178 8.31579 2.13897 8.31579 2.80459C8.32516 2.94522 8.34157 3.07881 8.36501 3.20537C8.38845 3.33193 8.41891 3.45615 8.45641 3.57803V3.56396L4.2236 5.99678C3.9986 5.74365 3.73141 5.54443 3.42204 5.39912C3.11266 5.25381 2.77516 5.18115 2.40954 5.18115C1.75329 5.18115 1.18845 5.41553 0.715008 5.88428C0.241571 6.35303 0.00485229 6.92022 0.00485229 7.58584C0.00485229 8.25146 0.241571 8.81865 0.715008 9.2874C1.18845 9.75615 1.75329 9.99053 2.40954 9.99053C2.76579 9.99053 3.09626 9.92022 3.40095 9.77959C3.70563 9.63897 3.96579 9.44678 4.18141 9.20303H4.19548L8.44235 11.664C8.40485 11.7765 8.37673 11.8937 8.35798 12.0155C8.33923 12.1374 8.32516 12.264 8.31579 12.3952C8.31579 13.0608 8.55251 13.6304 9.02595 14.1038C9.49938 14.5772 10.0689 14.814 10.7345 14.814C11.4002 14.814 11.9674 14.5772 12.4361 14.1038C12.9049 13.6304 13.1392 13.0608 13.1392 12.3952C13.1392 11.7296 12.9049 11.1624 12.4361 10.6937C11.9674 10.2249 11.4002 9.99053 10.7345 9.99053Z" fill="white"/>
</g>
<defs>
<clipPath id="clip0_36_1127">
<rect width="13.13" height="14.4" fill="white" transform="matrix(1 0 0 -1 0 14.7998)"/>
</clipPath>
</defs>
</svg>
