<svg width="20" height="20" viewBox="0 0 20 20" fill="none" xmlns="http://www.w3.org/2000/svg">
<path d="M18.1249 14.9832C18.1249 14.9666 18.1166 14.9499 18.1166 14.9332C18.1083 14.8666 18.0999 14.7999 18.0749 14.7416C18.0416 14.6666 17.9999 14.6082 17.9499 14.5499C17.9499 14.5499 17.9499 14.5416 17.9416 14.5416C17.8833 14.4832 17.8166 14.4416 17.7416 14.4082C17.6666 14.3749 17.5833 14.3582 17.4999 14.3582L13.6083 14.3749C13.6083 14.3749 13.6083 14.3749 13.5999 14.3749C13.0999 14.3749 12.6166 14.1416 12.3166 13.7416L11.2999 12.4332C11.0916 12.1582 10.6999 12.1082 10.4249 12.3249C10.1499 12.5416 10.0999 12.9249 10.3166 13.1999L11.3333 14.5082C11.8749 15.2082 12.7249 15.6249 13.6083 15.6249H13.6166L15.9916 15.6166L15.3999 16.2082C15.1583 16.4499 15.1583 16.8499 15.3999 17.0916C15.5249 17.2166 15.6833 17.2749 15.8416 17.2749C15.9999 17.2749 16.1583 17.2166 16.2833 17.0916L17.9499 15.4249C18.0083 15.3666 18.0499 15.2999 18.0833 15.2249C18.1083 15.1416 18.1249 15.0582 18.1249 14.9832Z" fill="white"/>
<path d="M7.01667 5.57497C6.475 4.82497 5.60833 4.3833 4.68333 4.3833C4.675 4.3833 4.675 4.3833 4.66667 4.3833L2.5 4.39163C2.15833 4.39163 1.875 4.67497 1.875 5.01663C1.875 5.3583 2.15833 5.64163 2.5 5.64163L4.675 5.6333H4.68333C5.20833 5.6333 5.7 5.8833 6 6.3083L6.9 7.5583C7.025 7.72497 7.21667 7.81663 7.40833 7.81663C7.53333 7.81663 7.66667 7.77497 7.775 7.69997C8.05833 7.49163 8.11667 7.09997 7.91667 6.82497L7.01667 5.57497Z" fill="white"/>
<path d="M18.1167 5.0666C18.1167 5.04993 18.125 5.03327 18.125 5.02493C18.125 4.9416 18.1083 4.85827 18.075 4.78327C18.0417 4.70827 18 4.6416 17.9417 4.58327L16.275 2.9166C16.0333 2.67493 15.6333 2.67493 15.3917 2.9166C15.15 3.15827 15.15 3.55827 15.3917 3.79993L15.9833 4.3916L13.7083 4.38327C13.7 4.38327 13.7 4.38327 13.6917 4.38327C12.7333 4.38327 11.8333 4.85827 11.3 5.6666L5.975 13.6499C5.675 14.0999 5.16667 14.3749 4.625 14.3749H4.61667L2.5 14.3583C2.15833 14.3583 1.875 14.6333 1.875 14.9833C1.875 15.3249 2.15 15.6083 2.5 15.6083L4.625 15.6166C4.63333 15.6166 4.63333 15.6166 4.64167 15.6166C5.60833 15.6166 6.5 15.1416 7.03333 14.3333L12.3583 6.34993C12.6583 5.89993 13.1667 5.62493 13.7083 5.62493H13.7167L17.5 5.6416C17.5833 5.6416 17.6583 5.62493 17.7417 5.5916C17.8167 5.55827 17.8833 5.5166 17.9417 5.45827C17.9417 5.45827 17.9417 5.44993 17.95 5.44993C18 5.3916 18.05 5.33327 18.075 5.25827C18.1 5.19993 18.1083 5.13327 18.1167 5.0666Z" fill="white"/>
</svg>
