<svg width="15" height="15" viewBox="0 0 15 15" fill="none" xmlns="http://www.w3.org/2000/svg">
<g clip-path="url(#clip0_36_1107)">
<path d="M5.59687 0.400049C5.40937 0.400049 5.25 0.468018 5.11875 0.603955C4.9875 0.739893 4.92188 0.896924 4.92188 1.07505C4.92188 1.79692 4.92188 2.57974 4.92188 3.42349C4.92188 4.26724 4.92188 5.05239 4.92188 5.77896C4.92188 6.50552 4.91719 7.11255 4.90781 7.60005C4.90781 8.08755 4.90781 8.3313 4.90781 8.3313C4.90781 8.5563 4.85859 8.73677 4.76016 8.87271C4.66172 9.00864 4.51875 9.09536 4.33125 9.13286L2.82656 9.4563C1.86094 9.65317 1.14844 9.99302 0.689062 10.4758C0.229687 10.9586 0 11.561 0 12.2829C0 13.0235 0.257812 13.6282 0.773438 14.0969C1.28906 14.5657 1.94531 14.8 2.74219 14.8C3.08906 14.8 3.46875 14.7297 3.88125 14.5891C4.29375 14.4485 4.67578 14.2258 5.02734 13.9211C5.37891 13.6165 5.67188 13.2204 5.90625 12.7329C6.14062 12.2454 6.25781 11.6547 6.25781 10.961C6.25781 10.961 6.25781 10.6188 6.25781 9.93442C6.26719 9.25005 6.27187 8.40395 6.27187 7.39614C6.27187 6.38833 6.27187 5.31255 6.27187 4.1688C6.28125 3.02505 6.28594 1.9938 6.28594 1.07505C6.28594 0.887549 6.22031 0.728174 6.08906 0.596924C5.95781 0.465674 5.79844 0.400049 5.61094 0.400049C5.61094 0.400049 5.60859 0.400049 5.60391 0.400049C5.59922 0.400049 5.59687 0.400049 5.59687 0.400049Z" fill="white"/>
</g>
<defs>
<clipPath id="clip0_36_1107">
<rect width="14.4" height="14.4" fill="white" transform="matrix(1 0 0 -1 0 14.8)"/>
</clipPath>
</defs>
</svg>
